<?xml version="1.0" encoding="UTF-8" standalone="no"?>
<svg
   version="1.1"
   width="355.33954pt"
   height="333.45108pt"
   viewBox="0 0 355.33954 333.4511"
   overflow="visible"
   id="svg28"
   sodipodi:docname="Logo.svg"
   inkscape:export-filename="Logo.png"
   inkscape:export-xdpi="47.659595"
   inkscape:export-ydpi="47.659595"
   inkscape:version="1.2.2 (732a01da63, 2022-12-09)"
   xmlns:inkscape="http://www.inkscape.org/namespaces/inkscape"
   xmlns:sodipodi="http://sodipodi.sourceforge.net/DTD/sodipodi-0.dtd"
   xmlns="http://www.w3.org/2000/svg"
   xmlns:svg="http://www.w3.org/2000/svg">
  <defs
     id="defs32" />
  <sodipodi:namedview
     id="namedview30"
     pagecolor="#505050"
     bordercolor="#ffffff"
     borderopacity="1"
     inkscape:showpageshadow="0"
     inkscape:pageopacity="0"
     inkscape:pagecheckerboard="1"
     inkscape:deskcolor="#505050"
     inkscape:document-units="pt"
     showgrid="false"
     inkscape:zoom="1.1744936"
     inkscape:cx="76.203055"
     inkscape:cy="167.73186"
     inkscape:window-width="1920"
     inkscape:window-height="1057"
     inkscape:window-x="-8"
     inkscape:window-y="-8"
     inkscape:window-maximized="1"
     inkscape:current-layer="svg28" />
  <rect
     style="fill:none;fill-opacity:1;stroke:none;stroke-width:0.252077;stroke-linecap:round"
     id="rect3114"
     width="386.49063"
     height="386.49063"
     x="-15.594053"
     y="-143.25572" />
  <g
     id="g3366"
     transform="translate(14.290298,13.410035)">
    <rect
       style="fill:#c8c4b7;stroke:none;stroke-width:0.543733;stroke-linecap:round;stroke-linejoin:round;stroke-dasharray:none"
       id="rect2422"
       width="355.33954"
       height="333.45108"
       x="-14.290298"
       y="-13.410035"
       rx="10.874669" />
    <g
       id="g3060"
       transform="matrix(0.26045273,0,0,0.26045273,-22.737523,154.49011)"
       style="stroke:#000000;stroke-width:1.91973;stroke-dasharray:none">
      <path
         d="M 135.0676,464.4058 87.42,432.0148 v -35.0627 l 47.6476,32.3469 z"
         stroke="#000000"
         stroke-width="0.24"
         fill="none"
         id="path2"
         style="fill:#45b564;fill-opacity:1;stroke:#000000;stroke-width:1.91973;stroke-dasharray:none" />
      <path
         d="M 406.7205,342.0555 247.5865,450.2353 89.10084,342.0555 108.2168,328.8166 247.5865,423.8188 387.4319,328.7515 Z"
         stroke="#000000"
         stroke-width="0.24"
         fill="none"
         id="path4"
         style="fill:#000000;stroke:#000000;stroke-width:1.91973;stroke-dasharray:none" />
      <path
         d="m 371.7599,317.9419 -124.1734,84.4135 -123.751,-84.3556 19.223,-13.3131 104.528,71.2522 104.8848,-71.301 z"
         stroke="#000000"
         stroke-width="0.24"
         fill="none"
         id="path6"
         style="fill:#000000;stroke:#000000;stroke-width:1.91973;stroke-dasharray:none" />
      <path
         d="m 336.7994,293.8284 -89.2129,60.6471 -88.9094,-60.6056 19.223,-13.313 69.6864,47.5022 69.9243,-47.5348 z"
         stroke="#000000"
         stroke-width="0.24"
         fill="none"
         id="path8"
         style="fill:#000000;stroke:#000000;stroke-width:1.91973;stroke-dasharray:none" />
      <path
         d="m 247.5865,306.5957 -54.0677,-36.8556 19.223,-13.3131 34.8447,23.7522 34.9637,-23.7685 19.2886,13.3041 z"
         stroke="#000000"
         stroke-width="0.24"
         fill="none"
         id="path10"
         style="fill:#000000;stroke:#000000;stroke-width:1.91973;stroke-dasharray:none" />
      <path
         d="m 247.5865,258.7158 -19.2261,-13.1056 19.2261,-13.3152 19.2917,13.3062 z"
         stroke="#000000"
         stroke-width="0.24"
         fill="none"
         id="path12"
         style="fill:#000000;stroke:#000000;stroke-width:1.91973;stroke-dasharray:none" />
      <path
         d="m 251.9211,583.9135 155.832,-105.9351 -1e-4,-35.0628 -155.8319,105.7911 z"
         stroke="#000000"
         stroke-width="0.24"
         fill="none"
         id="path14"
         style="fill:#c8e6cf;fill-opacity:1;stroke:#000000;stroke-width:1.91973;stroke-dasharray:none" />
      <path
         d="m 251.9211,537.9498 155.832,-105.935 -1e-4,-35.0627 -155.8319,105.791 z"
         stroke="#000000"
         stroke-width="0.24"
         fill="none"
         id="path16"
         style="fill:#c8e6cf;fill-opacity:1;stroke:#000000;stroke-width:1.91973;stroke-dasharray:none" />
      <path
         d="M 251.9211,492.1208 407.7531,386.1857 407.753,351.123 251.9211,456.914 Z"
         stroke="#000000"
         stroke-width="0.24"
         fill="none"
         id="path18"
         style="fill:#c8e6cf;fill-opacity:1;stroke:#000000;stroke-width:1.91973;stroke-dasharray:none" />
      <path
         d="M 243.2519,583.9135 87.42,477.9784 v -35.0628 l 155.8319,105.7911 z"
         stroke="#000000"
         stroke-width="0.24"
         fill="none"
         id="path20"
         style="fill:#45b564;fill-opacity:1;stroke:#000000;stroke-width:1.91973;stroke-dasharray:none" />
      <path
         d="M 243.2519,492.1251 87.42,386.19 v -35.0627 l 155.8319,105.791 z"
         stroke="#000000"
         stroke-width="0.24"
         fill="none"
         id="path22"
         style="fill:#45b564;fill-opacity:1;stroke:#000000;stroke-width:1.91973;stroke-dasharray:none" />
      <path
         d="m 188.2499,465.4034 v 35.0627 L 142.422,469.3545 v -35.0627 z"
         stroke="#000000"
         stroke-width="0.24"
         fill="none"
         id="path24"
         style="fill:#45b564;fill-opacity:1;stroke:#000000;stroke-width:1.91973;stroke-dasharray:none" />
      <path
         d="m 243.2519,537.8499 -47.6476,-32.391 v -35.0628 l 47.6476,32.347 z"
         stroke="#000000"
         stroke-width="0.24"
         fill="none"
         id="path26"
         style="fill:#45b564;fill-opacity:1;stroke:#000000;stroke-width:1.91973;stroke-dasharray:none" />
    </g>
    <g
       id="g590"
       transform="matrix(0.71315982,0,0,0.71315982,208.96343,-115.32653)"
       style="stroke:#000000;stroke-width:0.701105;stroke-dasharray:none">
      <g
         id="g261"
         transform="matrix(0.75,0,0,0.75,-298.55093,464.88545)"
         style="stroke:#000000;stroke-width:0.934807;stroke-dasharray:none">
        <path
           class="st0"
           d="m 222.9,20.1 c 0.4,-0.9 1.2,-1.5 2.2,-1.5 h 8.5 c 0.7,0 1.2,0.7 0.9,1.5 l -29.9,72.8 c -0.3,0.9 -1.1,1.4 -2,1.4 -0.9,0 -1.7,-0.5 -2.1,-1.4 L 170.7,20.1 c -0.3,-0.8 0.2,-1.5 0.9,-1.5 h 8.5 c 0.9,0 1.8,0.6 2.2,1.5 l 20.3,52.5 z"
           id="path249"
           style="fill:#4bb262;stroke:#000000;stroke-width:0.934807;stroke-dasharray:none" />
        <path
           class="st0"
           d="m 287,73.8 h -26.6 l -7,18.2 c -0.4,1 -1.2,1.5 -2.2,1.5 h -8.5 c -0.7,0 -1.2,-0.7 -0.9,-1.5 l 29.8,-72.8 c 0.4,-0.9 1.1,-1.4 2.1,-1.4 0.8,0 1.7,0.5 2,1.4 L 305.6,92 c 0.3,0.7 -0.2,1.5 -0.9,1.5 h -8.5 c -0.9,0 -1.8,-0.5 -2.2,-1.5 z m -22.9,-9.5 h 19.2 l -9.6,-24.8 z"
           id="path251"
           style="fill:#4bb262;stroke:#000000;stroke-width:0.934807;stroke-dasharray:none" />
        <path
           class="st0"
           d="m 366.5,73.8 h -26.6 l -7,18.2 c -0.4,1 -1.2,1.5 -2.2,1.5 h -8.5 c -0.7,0 -1.2,-0.7 -0.9,-1.5 l 29.8,-72.8 c 0.4,-0.9 1.1,-1.4 2.1,-1.4 0.8,0 1.7,0.5 2,1.4 L 385.1,92 c 0.3,0.7 -0.2,1.5 -0.9,1.5 h -8.5 c -0.9,0 -1.8,-0.5 -2.2,-1.5 z m -22.9,-9.5 h 19.2 l -9.6,-24.8 z"
           id="path253"
           style="fill:#4bb262;stroke:#000000;stroke-width:0.934807;stroke-dasharray:none" />
        <path
           class="st0"
           d="m 434.5,66.9 c -0.8,0 -1.5,-0.8 -1.5,-1.6 v -6.4 c 0,-0.9 0.7,-1.6 1.5,-1.6 h 22.7 c 0.8,0 1.5,0.7 1.5,1.6 v 23.7 c 0,1.1 -0.4,2 -1.1,2.7 -6.1,5.8 -13.9,9.4 -24.8,9.4 -27.6,0 -35.7,-22.5 -35.7,-38.6 0,-15.7 8.2,-38.5 35.7,-38.5 11.5,0 18.1,3.1 24.1,9.4 0.6,0.6 0.5,1.7 0,2.4 l -4.5,4.7 c -0.5,0.6 -1.5,0.6 -2.2,0.1 -3.8,-3.6 -10.4,-6.9 -17.3,-6.9 -21.8,0 -25,21.5 -25,28.7 0,7.2 3.2,28.6 25,28.6 5.8,0 11.3,-1.7 15.3,-4.8 v -13 h -13.7 z"
           id="path255"
           style="fill:#4bb262;stroke:#000000;stroke-width:0.934807;stroke-dasharray:none" />
        <path
           class="st0"
           d="M 496.1,61.5 V 84 h 35.4 c 0.8,0 1.5,0.8 1.5,1.6 V 92 c 0,0.9 -0.7,1.6 -1.5,1.6 h -44.4 c -0.8,0 -1.5,-0.7 -1.5,-1.6 V 20.2 c 0,-0.9 0.7,-1.6 1.5,-1.6 h 44.4 c 0.8,0 1.5,0.7 1.5,1.6 v 6.4 c 0,0.9 -0.7,1.6 -1.5,1.6 h -35.4 v 23.6 h 35.4 c 0.8,0 1.5,0.8 1.5,1.6 v 6.4 c 0,0.9 -0.7,1.6 -1.5,1.6 h -35.4 z"
           id="path257"
           style="fill:#4bb262;stroke:#000000;stroke-width:0.934807;stroke-dasharray:none" />
        <path
           class="st0"
           d="m 607.8,20.2 c 0,-0.9 0.7,-1.6 1.5,-1.6 h 7.5 c 0.8,0 1.5,0.7 1.5,1.6 v 73 c 0,0.5 -0.4,1 -0.9,1 -0.6,0 -1.1,-0.2 -1.5,-0.8 L 570.6,43 570.5,92.1 c 0,0.9 -0.7,1.6 -1.5,1.6 h -7.5 C 560.7,93.7 560,93 560,92.1 V 19 c 0,-0.6 0.4,-1.1 0.9,-1.1 0.6,0 1.2,0.3 1.7,0.7 l 45.3,50.2 V 20.2 Z"
           id="path259"
           style="fill:#4bb262;stroke:#000000;stroke-width:0.934807;stroke-dasharray:none" />
      </g>
      <g
         id="g277"
         transform="matrix(0.75,0,0,0.75,-298.55093,464.88545)"
         style="fill:#000000;stroke:#000000;stroke-width:0.934807;stroke-dasharray:none">
        <path
           class="st1"
           d="m 268,119 h -8.8 c -0.4,0 -0.7,-0.3 -0.7,-0.7 v -2.9 c 0,-0.4 0.3,-0.7 0.7,-0.7 h 22.5 c 0.4,0 0.7,0.3 0.7,0.7 v 2.9 c 0,0.4 -0.3,0.7 -0.7,0.7 h -8.9 v 28.9 c 0,0.4 -0.3,0.7 -0.7,0.7 h -3.4 c -0.4,0 -0.7,-0.3 -0.7,-0.7 z"
           id="path263"
           style="fill:#000000;stroke:#000000;stroke-width:0.934807;stroke-dasharray:none" />
        <path
           class="st1"
           d="m 308.6,147.9 c 0,0.4 -0.3,0.7 -0.7,0.7 h -3.4 c -0.4,0 -0.7,-0.3 -0.7,-0.7 v -32.5 c 0,-0.4 0.3,-0.7 0.7,-0.7 h 3.4 c 0.4,0 0.7,0.3 0.7,0.7 z"
           id="path265"
           style="fill:#000000;stroke:#000000;stroke-width:0.934807;stroke-dasharray:none" />
        <path
           class="st1"
           d="m 340.1,126.4 -6.8,21.6 c -0.1,0.4 -0.5,0.7 -0.9,0.7 h -3.8 c -0.3,0 -0.6,-0.3 -0.5,-0.7 l 10.7,-33.2 c 0.1,-0.3 0.3,-0.5 0.6,-0.5 0.3,0 0.6,0.2 0.7,0.5 l 10,24.3 10,-24.3 c 0.1,-0.3 0.4,-0.5 0.7,-0.5 0.3,0 0.6,0.2 0.7,0.5 l 10.7,33.2 c 0.1,0.3 -0.1,0.7 -0.5,0.7 h -3.8 c -0.4,0 -0.8,-0.3 -0.9,-0.7 l -6.8,-21.6 -9.2,22.1 c -0.1,0.3 -0.5,0.6 -0.8,0.6 -0.4,0 -0.7,-0.2 -0.8,-0.6 z"
           id="path267"
           style="fill:#000000;stroke:#000000;stroke-width:0.934807;stroke-dasharray:none" />
        <path
           class="st1"
           d="m 411.4,139.1 c 0,4 -2.6,9.6 -11.4,9.6 h -11.4 c -0.4,0 -0.7,-0.3 -0.7,-0.7 v -32.5 c 0,-0.4 0.3,-0.7 0.7,-0.7 H 400 c 8.7,0 11.4,5.6 11.4,9.7 0,2.6 -1.2,5.6 -4,7.3 2.7,1.3 4,5 4,7.3 z m -4.9,-14.8 c 0,-1.3 -0.8,-5.3 -6,-5.3 h -7.9 v 10.7 h 8 c 5.1,-0.1 5.9,-3.7 5.9,-5.4 z m 0,14.8 c 0,-1.9 -0.8,-4.9 -5.8,-5 h -8 v 10.2 h 7.9 c 5.1,0 5.9,-3.9 5.9,-5.2 z"
           id="path269"
           style="fill:#000000;stroke:#000000;stroke-width:0.934807;stroke-dasharray:none" />
        <path
           class="st1"
           d="m 434,134.1 v 10.2 h 16 c 0.4,0 0.7,0.3 0.7,0.7 v 2.9 c 0,0.4 -0.3,0.7 -0.7,0.7 h -20.1 c -0.4,0 -0.7,-0.3 -0.7,-0.7 v -32.5 c 0,-0.4 0.3,-0.7 0.7,-0.7 H 450 c 0.4,0 0.7,0.3 0.7,0.7 v 2.9 c 0,0.4 -0.3,0.7 -0.7,0.7 h -16 v 10.7 h 12.4 c 0.4,0 0.7,0.3 0.7,0.7 v 2.9 c 0,0.4 -0.3,0.7 -0.7,0.7 H 434 Z"
           id="path271"
           style="fill:#000000;stroke:#000000;stroke-width:0.934807;stroke-dasharray:none" />
        <path
           class="st1"
           d="m 473.3,147.9 c 0,0.4 -0.3,0.7 -0.7,0.7 h -3.3 c -0.4,0 -0.7,-0.3 -0.7,-0.7 v -32.5 c 0,-0.4 0.3,-0.7 0.7,-0.7 h 11.4 c 8.7,0 11.4,6.3 11.4,10.6 0,5.1 -3.4,8.7 -7.3,10.1 l 5.7,12.5 c 0.1,0.3 -0.1,0.7 -0.4,0.7 h -3.7 c -0.4,0 -0.8,-0.2 -1,-0.7 L 480,136 h -6.6 v 11.9 z m 13.9,-22.6 c 0,-2.2 -1.1,-6.3 -6.3,-6.3 h -7.6 v 12.6 h 7.8 c 5,-0.1 6.1,-4.3 6.1,-6.3 z"
           id="path273"
           style="fill:#000000;stroke:#000000;stroke-width:0.934807;stroke-dasharray:none" />
        <path
           class="st1"
           d="m 530.5,139.8 c 0,5.2 -5,9.2 -11.6,9.2 -4.6,0 -7.9,-0.9 -11.3,-2.7 -0.3,-0.2 -0.5,-0.6 -0.3,-1 l 1.2,-2.6 c 0.2,-0.4 0.6,-0.5 1,-0.4 2.7,1.3 5.7,2.2 9,2.2 3.6,0 7,-1.9 7,-4.9 0,-9.2 -18.2,-4.1 -18.2,-16.3 0,-5.9 4.3,-9.4 10.2,-9.4 1.8,0 6,0.3 10.6,2.4 0.4,0.1 0.5,0.6 0.4,1 l -1.2,2.8 c -0.1,0.4 -0.6,0.6 -0.9,0.4 -2.3,-0.9 -5.8,-1.9 -7.7,-1.9 -3.5,0 -6.2,0.7 -6.5,4.3 0,8 18.3,3.6 18.3,16.9 z"
           id="path275"
           style="fill:#000000;stroke:#000000;stroke-width:0.934807;stroke-dasharray:none" />
      </g>
    </g>
    <text
       xml:space="preserve"
       style="font-size:64px;font-family:Arial;-inkscape-font-specification:Arial;text-align:center;text-anchor:middle;fill:#008000;stroke:#000000;stroke-width:1.41732;stroke-linecap:round;stroke-linejoin:round"
       x="163.63441"
       y="47.30241"
       id="text646"><tspan
         sodipodi:role="line"
         id="tspan644"
         style="font-style:normal;font-variant:normal;font-weight:normal;font-stretch:normal;font-size:64px;font-family:'Arial Rounded MT Bold';-inkscape-font-specification:'Arial Rounded MT Bold, ';fill:#008000;stroke-width:1.41732"
         x="163.63441"
         y="47.30241">Timber</tspan><tspan
         sodipodi:role="line"
         style="font-style:normal;font-variant:normal;font-weight:normal;font-stretch:normal;font-size:64px;font-family:'Arial Rounded MT Bold';-inkscape-font-specification:'Arial Rounded MT Bold, ';fill:#008000;stroke-width:1.41732"
         x="163.63441"
         y="127.32825"
         id="tspan698">Sequence</tspan><tspan
         sodipodi:role="line"
         style="font-style:normal;font-variant:normal;font-weight:normal;font-stretch:normal;font-size:64px;font-family:'Arial Rounded MT Bold';-inkscape-font-specification:'Arial Rounded MT Bold, ';fill:#008000;stroke-width:1.41732"
         x="163.63441"
         y="207.3541"
         id="tspan700">Pro</tspan></text>
  </g>
</svg>
